<?xml version="1.0" ?><svg id="katman_1" style="enable-background:new 0 0 512 512;" version="1.1" viewBox="0 0 512 512" xml:space="preserve" xmlns="http://www.w3.org/2000/svg" xmlns:xlink="http://www.w3.org/1999/xlink"><style type="text/css">
	.st0{fill:#35495E;}
	.st1{fill:#2C3E50;}
	.st2{fill:#FFFFFF;}
</style><g><g><circle class="st0" cx="256" cy="256" r="250"/></g><path class="st1" d="M503.2,293.8c-0.2-0.4-0.5-0.7-0.9-1.1c-33.1-33-66.1-66-99.1-99.1c-1.9-1.9-4.1-3.5-6.6-4.7   c-41.4-20.7-82.7-41.3-124.1-62c-10.4-5.2-20.8-5.2-31.2,0c-15.5,7.8-31.1,15.5-46.6,23.3c-25.9,13-51.8,25.9-77.8,38.9   c-2.4,1.2-4.6,2.6-6.3,4.7c-5.5,6.7-5.2,16.2,0.9,22.5c5.5,5.7,11.2,11.2,16.8,16.8c0.5,0.5,1.2,0.8,1.3,1.7   c-0.6,0.3-1.1,0.6-1.7,0.9c-4.1,2-8.1,4-12.2,6.1c-9.9,5.2-12.1,18.1-4.5,26.3c1.6,1.7,3.3,3.3,4.9,4.9c4.5,4.5,9.1,9,13.8,13.7   c-1,0.5-1.7,0.9-2.4,1.2c-4,2-8,3.9-11.9,6.1c-5.9,3.2-8.8,8.4-8.8,15.1c0,5,2.3,9,5.8,12.4c60.2,60.2,120.4,120.3,180.6,180.5   c0.3,0.3,0.7,0.7,1,1c0,0,0.1,0.1,0.1,0.1C401.8,486.6,486.8,401.4,503.2,293.8z"/><path class="st2" d="M406,256c0-6.3-3.5-12-9.2-14.9l-22.3-11.2l22.3-11.2c0,0,0,0,0,0c5.7-2.8,9.2-8.5,9.2-14.9   c0-6.3-3.5-12-9.2-14.9l-126.1-63c-9.2-4.6-20.2-4.6-29.4,0L115.2,189c-5.7,2.8-9.2,8.5-9.2,14.9c0,6.3,3.5,12,9.2,14.9l22.3,11.2   l-22.3,11.2c-5.7,2.8-9.2,8.5-9.2,14.9c0,6.3,3.5,12,9.2,14.9l22.3,11.2l-22.3,11.2c-5.7,2.8-9.2,8.5-9.2,14.9   c0,6.3,3.5,12,9.2,14.9L241.3,386c4.6,2.3,9.7,3.4,14.7,3.4s10.1-1.2,14.7-3.4L396.8,323c5.7-2.8,9.2-8.5,9.2-14.9   c0-6.3-3.5-12-9.2-14.9l-22.3-11.2l22.3-11.2C402.5,268,406,262.3,406,256z M121.4,206.4c-1.4-0.7-1.6-1.9-1.6-2.5s0.2-1.9,1.6-2.5   l126.1-63c2.7-1.3,5.6-2,8.5-2c2.9,0,5.9,0.7,8.5,2l126.1,63c1.4,0.7,1.6,1.9,1.6,2.5s-0.2,1.9-1.6,2.5l-126.1,63   c-5.3,2.7-11.7,2.7-17.1,0L121.4,206.4z M390.6,305.6c1.4,0.7,1.6,1.9,1.6,2.5c0,0.7-0.2,1.9-1.6,2.5l-126.1,63   c-5.3,2.7-11.7,2.7-17.1,0l-126.1-63c-1.4-0.7-1.6-1.9-1.6-2.6c0-0.7,0.2-1.9,1.6-2.5l31.6-15.8l88.3,44.2   c4.6,2.3,9.7,3.4,14.7,3.4c5,0,10.1-1.2,14.7-3.4l88.3-44.2L390.6,305.6z M390.6,258.5l-126.1,63c-5.3,2.7-11.7,2.7-17.1,0   l-126.1-63c-1.4-0.7-1.6-1.9-1.6-2.5c0-0.7,0.2-1.9,1.6-2.5l31.6-15.8l88.3,44.2c4.6,2.3,9.7,3.4,14.7,3.4c5,0,10.1-1.1,14.7-3.5   l88.3-44.2l31.6,15.8c1.4,0.7,1.6,1.9,1.6,2.5C392.2,256.7,392,257.9,390.6,258.5z"/></g></svg>